<svg xmlns="http://www.w3.org/2000/svg" viewBox="0 0 1200 300" width="1200" height="300" role="img" aria-label="Weekly contributions over the last year, 58 total"><title>Weekly contributions over the last year, 58 total</title><rect x="14" y="14" width="1176" height="276" fill="#C8321E" stroke="#1A1512" stroke-width="4"/><rect x="4" y="4" width="1176" height="276" fill="#EDE6DA" stroke="#1A1512" stroke-width="4"/><rect x="4" y="4" width="1176" height="46" fill="#1A1512"/><text x="24" y="35" font-family="'JetBrains Mono','JetBrainsMono Nerd Font','DejaVu Sans Mono',ui-monospace,Menlo,Consolas,monospace" font-size="19" font-weight="800" fill="#EDE6DA" text-anchor="start" >CONTRIBUTION LOG // LAST 52 WEEKS</text><text x="1160" y="38" font-family="'Noto Serif CJK JP','Noto Serif JP','Hiragino Mincho ProN','Yu Mincho',serif" font-size="26" font-weight="900" fill="#E8B730" text-anchor="end" >記録</text><defs><pattern id="hatch" width="10" height="10" patternUnits="userSpaceOnUse" patternTransform="rotate(45)"><rect width="4" height="10" fill="#1A1512" opacity=".06"/></pattern></defs><rect x="4" y="50" width="1176" height="226" fill="url(#hatch)"/><line x1="44" y1="156.0" x2="1150" y2="156.0" stroke="#1A1512" stroke-width="1" stroke-dasharray="4 6" opacity=".35"/><text x="36" y="161.0" font-family="'JetBrains Mono','JetBrainsMono Nerd Font','DejaVu Sans Mono',ui-monospace,Menlo,Consolas,monospace" font-size="12" font-weight="700" fill="#1A1512" text-anchor="end" >29</text><line x1="44" y1="76.0" x2="1150" y2="76.0" stroke="#1A1512" stroke-width="1" stroke-dasharray="4 6" opacity=".35"/><text x="36" y="81.0" font-family="'JetBrains Mono','JetBrainsMono Nerd Font','DejaVu Sans Mono',ui-monospace,Menlo,Consolas,monospace" font-size="12" font-weight="700" fill="#1A1512" text-anchor="end" >58</text><rect x="47.0" y="233" width="15.3" height="3" fill="#1A1512"/><text x="47.0" y="258" font-family="'JetBrains Mono','JetBrainsMono Nerd Font','DejaVu Sans Mono',ui-monospace,Menlo,Consolas,monospace" font-size="12" font-weight="700" fill="#1A1512" text-anchor="start" >SEP</text><rect x="68.3" y="233" width="15.3" height="3" fill="#1A1512"/><rect x="89.5" y="233" width="15.3" height="3" fill="#1A1512"/><rect x="110.8" y="233" width="15.3" height="3" fill="#1A1512"/><rect x="132.1" y="233" width="15.3" height="3" fill="#1A1512"/><rect x="153.3" y="233" width="15.3" height="3" fill="#1A1512"/><text x="153.34615384615387" y="258" font-family="'JetBrains Mono','JetBrainsMono Nerd Font','DejaVu Sans Mono',ui-monospace,Menlo,Consolas,monospace" font-size="12" font-weight="700" fill="#1A1512" text-anchor="start" >NOV</text><rect x="174.6" y="233" width="15.3" height="3" fill="#1A1512"/><rect x="195.9" y="233" width="15.3" height="3" fill="#1A1512"/><rect x="217.2" y="233" width="15.3" height="3" fill="#1A1512"/><rect x="238.4" y="233" width="15.3" height="3" fill="#1A1512"/><rect x="259.7" y="233" width="15.3" height="3" fill="#1A1512"/><text x="259.69230769230774" y="258" font-family="'JetBrains Mono','JetBrainsMono Nerd Font','DejaVu Sans Mono',ui-monospace,Menlo,Consolas,monospace" font-size="12" font-weight="700" fill="#1A1512" text-anchor="start" >DEC</text><rect x="281.0" y="233" width="15.3" height="3" fill="#1A1512"/><rect x="302.2" y="233" width="15.3" height="3" fill="#1A1512"/><rect x="323.5" y="233" width="15.3" height="3" fill="#1A1512"/><rect x="344.8" y="233" width="15.3" height="3" fill="#1A1512"/><text x="344.7692307692308" y="258" font-family="'JetBrains Mono','JetBrainsMono Nerd Font','DejaVu Sans Mono',ui-monospace,Menlo,Consolas,monospace" font-size="12" font-weight="700" fill="#1A1512" text-anchor="start" >JAN</text><rect x="366.0" y="233" width="15.3" height="3" fill="#1A1512"/><rect x="387.3" y="233" width="15.3" height="3" fill="#1A1512"/><rect x="408.6" y="233" width="15.3" height="3" fill="#1A1512"/><rect x="429.8" y="233" width="15.3" height="3" fill="#1A1512"/><text x="429.84615384615387" y="258" font-family="'JetBrains Mono','JetBrainsMono Nerd Font','DejaVu Sans Mono',ui-monospace,Menlo,Consolas,monospace" font-size="12" font-weight="700" fill="#1A1512" text-anchor="start" >FEB</text><rect x="451.1" y="233" width="15.3" height="3" fill="#1A1512"/><rect x="472.4" y="233" width="15.3" height="3" fill="#1A1512"/><rect x="493.7" y="233" width="15.3" height="3" fill="#1A1512"/><rect x="514.9" y="233" width="15.3" height="3" fill="#1A1512"/><text x="514.9230769230769" y="258" font-family="'JetBrains Mono','JetBrainsMono Nerd Font','DejaVu Sans Mono',ui-monospace,Menlo,Consolas,monospace" font-size="12" font-weight="700" fill="#1A1512" text-anchor="start" >MAR</text><rect x="536.2" y="233" width="15.3" height="3" fill="#1A1512"/><rect x="557.5" y="233" width="15.3" height="3" fill="#1A1512"/><rect x="578.7" y="233" width="15.3" height="3" fill="#1A1512"/><rect x="600.0" y="233" width="15.3" height="3" fill="#1A1512"/><rect x="621.3" y="233" width="15.3" height="3" fill="#1A1512"/><text x="621.2692307692308" y="258" font-family="'JetBrains Mono','JetBrainsMono Nerd Font','DejaVu Sans Mono',ui-monospace,Menlo,Consolas,monospace" font-size="12" font-weight="700" fill="#1A1512" text-anchor="start" >APR</text><rect x="642.5" y="233" width="15.3" height="3" fill="#1A1512"/><rect x="663.8" y="233" width="15.3" height="3" fill="#1A1512"/><rect x="685.1" y="233" width="15.3" height="3" fill="#1A1512"/><rect x="706.3" y="233" width="15.3" height="3" fill="#1A1512"/><text x="706.3461538461539" y="258" font-family="'JetBrains Mono','JetBrainsMono Nerd Font','DejaVu Sans Mono',ui-monospace,Menlo,Consolas,monospace" font-size="12" font-weight="700" fill="#1A1512" text-anchor="start" >MAY</text><rect x="727.6" y="233" width="15.3" height="3" fill="#1A1512"/><rect x="748.9" y="233" width="15.3" height="3" fill="#1A1512"/><rect x="770.2" y="233" width="15.3" height="3" fill="#1A1512"/><rect x="791.4" y="233" width="15.3" height="3" fill="#1A1512"/><rect x="812.7" y="233" width="15.3" height="3" fill="#1A1512"/><text x="812.6923076923077" y="258" font-family="'JetBrains Mono','JetBrainsMono Nerd Font','DejaVu Sans Mono',ui-monospace,Menlo,Consolas,monospace" font-size="12" font-weight="700" fill="#1A1512" text-anchor="start" >JUN</text><rect x="834.0" y="233" width="15.3" height="3" fill="#1A1512"/><rect x="855.2" y="233" width="15.3" height="3" fill="#1A1512"/><rect x="876.5" y="233" width="15.3" height="3" fill="#1A1512"/><rect x="897.8" y="233" width="15.3" height="3" fill="#1A1512"/><text x="897.7692307692308" y="258" font-family="'JetBrains Mono','JetBrainsMono Nerd Font','DejaVu Sans Mono',ui-monospace,Menlo,Consolas,monospace" font-size="12" font-weight="700" fill="#1A1512" text-anchor="start" >JUL</text><rect x="919.0" y="233" width="15.3" height="3" fill="#1A1512"/><rect x="940.3" y="233" width="15.3" height="3" fill="#1A1512"/><rect x="961.6" y="233" width="15.3" height="3" fill="#1A1512"/><rect x="982.8" y="233" width="15.3" height="3" fill="#1A1512"/><text x="982.8461538461539" y="258" font-family="'JetBrains Mono','JetBrainsMono Nerd Font','DejaVu Sans Mono',ui-monospace,Menlo,Consolas,monospace" font-size="12" font-weight="700" fill="#1A1512" text-anchor="start" >AUG</text><rect x="1004.1" y="233" width="15.3" height="3" fill="#1A1512"/><rect x="1025.4" y="233" width="15.3" height="3" fill="#1A1512"/><rect x="1046.7" y="233" width="15.3" height="3" fill="#1A1512"/><rect x="1067.9" y="233" width="15.3" height="3" fill="#1A1512"/><rect x="1089.2" y="233" width="15.3" height="3" fill="#1A1512"/><text x="1089.1923076923076" y="258" font-family="'JetBrains Mono','JetBrainsMono Nerd Font','DejaVu Sans Mono',ui-monospace,Menlo,Consolas,monospace" font-size="12" font-weight="700" fill="#1A1512" text-anchor="start" >SEP</text><rect x="1110.5" y="233" width="15.3" height="3" fill="#1A1512"/><rect x="1131.7" y="76.0" width="15.3" height="160.0" fill="#E8B730" stroke="#1A1512" stroke-width="2"/><line x1="44" y1="236" x2="1150" y2="236" stroke="#1A1512" stroke-width="3"/><text x="1086" y="34" font-family="'JetBrains Mono','JetBrainsMono Nerd Font','DejaVu Sans Mono',ui-monospace,Menlo,Consolas,monospace" font-size="13" font-weight="700" fill="#EDE6DA" text-anchor="end" >TOTAL 58 · UPDATED 2026-09-26</text></svg>
